# xmcd
#
# Track frame offsets: 
#        150
#        19262
#        43955
#
# Disc length: 842 seconds
#
# Revision: 0
# Processed by: cddbd v1.5.1PL0 Copyright (c) Steve Scherf et al.
# Submitted via: ExactAudioCopy v0.95a3
#
DISCID=22034803
DTITLE=Александр Малинин - Я Всё Равно Люблю Тебя (Сингл)
DYEAR=1996
DGENRE=Pop
TTITLE0=Я Всё Равно Люблю Тебя
TTITLE1=Ангел
TTITLE2=Дочь Рыбака
EXTD=
EXTT0=
EXTT1=
EXTT2=
PLAYORDER=
